<svg width="115" height="115" viewBox="0 0 115 115" fill="none" xmlns="http://www.w3.org/2000/svg">
<path d="M84.1405 17.2815H30.8595C22.791 17.2815 16.2502 23.8223 16.2502 31.8908V83.1093C16.2502 91.1778 22.791 97.7186 30.8595 97.7186H84.1405C92.209 97.7186 98.7498 91.1778 98.7498 83.1093V31.8908C98.7498 23.8223 92.209 17.2815 84.1405 17.2815Z" fill="#330000"/>
<path d="M56.2282 65.5534H43.4439L40.8428 73.6336C40.8074 73.781 40.7216 73.9113 40.6004 74.0022C40.4792 74.0932 40.33 74.1389 40.1787 74.1317H33.7035C33.3342 74.1317 33.2051 73.9288 33.3161 73.5229L44.3847 41.6451C44.4955 41.3131 44.6062 40.9349 44.7169 40.5105C44.8616 39.7721 44.9358 39.0216 44.9382 38.2692C44.9307 38.2166 44.9356 38.1629 44.9524 38.1125C44.9692 38.0621 44.9975 38.0162 45.0351 37.9786C45.0727 37.941 45.1185 37.9127 45.1689 37.8959C45.2194 37.8791 45.273 37.8742 45.3256 37.8817H54.1251C54.3829 37.8817 54.5305 37.974 54.5679 38.1585L67.131 73.5782C67.2416 73.9475 67.1309 74.132 66.7988 74.1317H59.6041C59.4806 74.1454 59.3562 74.1136 59.2544 74.0423C59.1526 73.971 59.0802 73.8651 59.0507 73.7443L56.2282 65.5534ZM45.4363 58.5802H54.1805C53.9591 57.8426 53.7009 57.0124 53.4058 56.0897C53.11 55.1679 52.7964 54.1809 52.465 53.1288C52.1328 52.0774 51.8007 51.0258 51.4686 49.9743C51.1366 48.9228 50.8323 47.9082 50.5556 46.9304C50.2788 45.9533 50.0298 45.0585 49.8085 44.2463H49.7531C49.4415 45.7409 49.0536 47.2187 48.5909 48.6737C48.0738 50.334 47.548 52.0312 47.0135 53.7653C46.4783 55.5 45.9525 57.105 45.4363 58.5802Z" fill="#FF9A00"/>
<path d="M74.6016 43.7481C74.0372 43.7708 73.4743 43.6741 72.9497 43.4643C72.4252 43.2545 71.9509 42.9363 71.5577 42.5306C71.1657 42.1073 70.8612 41.6107 70.6617 41.0693C70.4622 40.5279 70.3717 39.9525 70.3954 39.376C70.3753 38.8053 70.4758 38.2367 70.6904 37.7074C70.905 37.1781 71.2288 36.7001 71.6407 36.3044C72.0486 35.9129 72.5301 35.6062 73.0573 35.4019C73.5845 35.1977 74.147 35.1 74.7122 35.1146C76.0406 35.1146 77.0829 35.5112 77.8392 36.3044C78.221 36.7167 78.5177 37.2002 78.7124 37.7272C78.907 38.2543 78.9958 38.8146 78.9737 39.376C78.9968 39.9547 78.9034 40.5322 78.699 41.0741C78.4946 41.616 78.1834 42.1113 77.7838 42.5306C77.3662 42.9422 76.8679 43.263 76.3202 43.4725C75.7725 43.6821 75.1874 43.7759 74.6016 43.7481ZM70.7828 73.5782V47.124C70.7828 46.792 70.9298 46.6259 71.2256 46.6259H78.0329C78.3278 46.6259 78.4754 46.792 78.4757 47.124V73.5782C78.4757 73.9475 78.3281 74.132 78.0329 74.1317H71.281C70.949 74.1317 70.7829 73.9472 70.7828 73.5782Z" fill="#FF9A00"/>
</svg>
