<svg width="135" height="135" viewBox="0 0 135 135" fill="none" xmlns="http://www.w3.org/2000/svg">
<path d="M98.2995 21.0027H36.7005C27.3724 21.0027 19.8104 28.5646 19.8104 37.8927V97.1073C19.8104 106.435 27.3724 113.997 36.7005 113.997H98.2995C107.628 113.997 115.19 106.435 115.19 97.1073V37.8927C115.19 28.5646 107.628 21.0027 98.2995 21.0027Z" fill="#001E36"/>
<path d="M41.2873 86.2162V45.3308C41.2873 45.0329 41.4154 44.8829 41.6713 44.8829C42.353 44.8829 42.9755 44.8729 43.9143 44.8509C44.8521 44.83 45.8652 44.8086 46.9535 44.787C48.0413 44.7659 49.1931 44.7446 50.4087 44.7229C51.6242 44.702 52.8292 44.6913 54.0237 44.6909C57.2649 44.6909 59.9948 45.0962 62.2135 45.9066C64.2149 46.5836 66.0401 47.6984 67.5563 49.1698C68.8415 50.4451 69.8347 51.9842 70.4674 53.6806C71.066 55.3316 71.3693 57.0751 71.3633 58.8313C71.3633 62.2444 70.5742 65.0597 68.9959 67.2771C67.4072 69.5037 65.1741 71.1897 62.5976 72.1079C59.9102 73.1106 56.9239 73.4507 53.6399 73.4507C52.7011 73.4507 52.0399 73.44 51.6563 73.4187C51.2725 73.3976 50.6967 73.3869 49.9289 73.3866V86.1523C49.94 86.2305 49.9328 86.3103 49.9078 86.3852C49.8828 86.4602 49.8407 86.5283 49.7848 86.5842C49.729 86.64 49.6608 86.6821 49.5859 86.7071C49.5109 86.7321 49.4312 86.7393 49.3529 86.7281H41.7352C41.4363 86.7281 41.2873 86.5582 41.2873 86.2162ZM49.9288 52.5609V65.8961C50.4827 65.9391 50.9945 65.9604 51.4643 65.96H53.5758C55.1294 65.9549 56.6727 65.7085 58.1507 65.2297C59.4183 64.8532 60.551 64.1203 61.4138 63.1183C62.2455 62.1375 62.6614 60.7725 62.6616 59.0233C62.6953 57.7856 62.3732 56.5643 61.7336 55.5041C61.0612 54.4791 60.0894 53.686 58.9504 53.2328C57.4631 52.6547 55.8745 52.3827 54.2796 52.433C53.2558 52.433 52.3494 52.4437 51.5604 52.4649C50.7706 52.487 50.2268 52.519 49.9288 52.5609Z" fill="#31A8FF"/>
<path d="M96.1023 63.4714C94.8998 62.8536 93.6191 62.4015 92.2952 62.1277C90.8365 61.793 89.345 61.6213 87.8484 61.6158C87.0388 61.5939 86.2304 61.6909 85.449 61.9038C84.9516 62.0146 84.5096 62.2979 84.2012 62.7036C83.9927 63.0281 83.8817 63.4056 83.8814 63.7913C83.8931 64.1655 84.028 64.5254 84.2653 64.815C84.639 65.2522 85.0957 65.611 85.6089 65.8707C86.5211 66.362 87.4611 66.8 88.4241 67.1824C90.5715 67.9012 92.6234 68.8788 94.5346 70.0936C95.8365 70.9154 96.9138 72.0477 97.6698 73.3888C98.3055 74.6588 98.6238 76.0639 98.5976 77.4838C98.6359 79.3587 98.1001 81.2006 97.0621 82.7624C95.9507 84.3479 94.4071 85.5805 92.615 86.3134C90.6736 87.1663 88.2742 87.5929 85.417 87.5932C83.6018 87.6115 81.7898 87.44 80.0104 87.0813C78.6084 86.8242 77.2436 86.3944 75.9474 85.8016C75.8075 85.7294 75.6911 85.6188 75.6117 85.4828C75.5324 85.3469 75.4935 85.1911 75.4995 85.0338V78.1236C75.4918 78.0559 75.5026 77.9875 75.5308 77.9255C75.559 77.8635 75.6035 77.8103 75.6596 77.7717C75.7145 77.7406 75.7776 77.727 75.8405 77.7328C75.9033 77.7385 75.9629 77.7632 76.0114 77.8037C77.5422 78.7064 79.2044 79.3647 80.9381 79.7552C82.4662 80.1382 84.0337 80.3422 85.6089 80.363C87.1015 80.363 88.1999 80.1711 88.904 79.7872C89.222 79.6416 89.491 79.407 89.6783 79.1118C89.8657 78.8165 89.9635 78.4733 89.9598 78.1236C89.9598 77.5698 89.6399 77.0366 89.0001 76.5241C88.3603 76.0122 87.0593 75.3936 85.097 74.6685C83.088 73.9692 81.1831 73.0006 79.4344 71.7893C78.1837 70.9194 77.1539 69.769 76.4272 68.4301C75.798 67.1693 75.4799 65.7761 75.4995 64.3672C75.4959 62.6742 75.961 61.0133 76.8431 59.5684C77.8489 57.9772 79.2932 56.7107 81.0022 55.9213C82.8786 54.9836 85.2247 54.5144 88.0403 54.5137C89.6893 54.5004 91.3367 54.6181 92.9671 54.8656C94.1477 55.0154 95.3019 55.3276 96.397 55.7934C96.4839 55.8183 96.5637 55.8631 96.6304 55.9241C96.697 55.9852 96.7485 56.0609 96.7808 56.1453C96.8241 56.3015 96.8456 56.463 96.8449 56.6252V63.0875C96.8493 63.1627 96.8339 63.2377 96.8002 63.3051C96.7666 63.3725 96.7158 63.4298 96.653 63.4714C96.5674 63.514 96.4732 63.5361 96.3776 63.5361C96.2821 63.5361 96.1878 63.514 96.1023 63.4714Z" fill="#31A8FF"/>
</svg>
