<svg width="32" height="31" viewBox="0 0 32 31" fill="none" xmlns="http://www.w3.org/2000/svg">
<path fill-rule="evenodd" clip-rule="evenodd" d="M16.0258 0.691589C7.66997 0.691589 0.9021 7.45946 0.9021 15.8153C0.9021 22.5076 5.23127 28.1601 11.243 30.164C11.9991 30.2963 12.2827 29.8426 12.2827 29.4456C12.2827 29.0864 12.2638 27.8954 12.2638 26.6288C8.46397 27.3283 7.48092 25.7025 7.17845 24.8518C7.00831 24.4169 6.27103 23.0747 5.62827 22.7155C5.09894 22.432 4.34275 21.7325 5.60936 21.7136C6.80036 21.6947 7.65107 22.8101 7.93464 23.2638C9.29577 25.5512 11.4698 24.9085 12.3394 24.5115C12.4718 23.5284 12.8688 22.8668 13.3036 22.4887C9.93853 22.1106 6.42226 20.8062 6.42226 15.0213C6.42226 13.3766 7.00831 12.0155 7.97245 10.9568C7.82121 10.5787 7.29188 9.02855 8.12368 6.94903C8.12368 6.94903 9.3903 6.55204 12.2827 8.49922C13.4926 8.15893 14.7781 7.98879 16.0636 7.98879C17.3492 7.98879 18.6347 8.15893 19.8446 8.49922C22.737 6.53313 24.0036 6.94903 24.0036 6.94903C24.8354 9.02855 24.3061 10.5787 24.1548 10.9568C25.119 12.0155 25.705 13.3577 25.705 15.0213C25.705 20.8251 22.1699 22.1106 18.8048 22.4887C19.3531 22.9613 19.8257 23.8687 19.8257 25.2866C19.8257 27.3094 19.8068 28.9352 19.8068 29.4456C19.8068 29.8426 20.0903 30.3152 20.8465 30.164C23.8489 29.1504 26.4578 27.2208 28.306 24.6469C30.1542 22.0729 31.1488 18.9841 31.1496 15.8153C31.1496 7.45946 24.3817 0.691589 16.0258 0.691589Z" fill="white"/>
</svg>
