<svg width="30" height="31" viewBox="0 0 30 31" fill="none" xmlns="http://www.w3.org/2000/svg">
<path d="M29.3593 2.85036V27.8921C29.3593 28.4647 29.1319 29.0138 28.727 29.4186C28.3222 29.8235 27.7731 30.0509 27.2006 30.0509H2.15877C1.58623 30.0509 1.03714 29.8235 0.63229 29.4186C0.227442 29.0138 0 28.4647 0 27.8921L0 2.85036C0 2.27782 0.227442 1.72873 0.63229 1.32388C1.03714 0.919031 1.58623 0.691589 2.15877 0.691589L27.2006 0.691589C27.7731 0.691589 28.3222 0.919031 28.727 1.32388C29.1319 1.72873 29.3593 2.27782 29.3593 2.85036V2.85036ZM8.6351 11.9172H4.31755V25.7334H8.6351V11.9172ZM9.02368 7.16791C9.02595 6.84132 8.96388 6.51749 8.841 6.21489C8.71812 5.91229 8.53684 5.63686 8.30751 5.40433C8.07818 5.17179 7.80529 4.9867 7.50443 4.85963C7.20357 4.73256 6.88063 4.66599 6.55404 4.66373H6.47632C5.81217 4.66373 5.17523 4.92757 4.7056 5.39719C4.23598 5.86682 3.97214 6.50376 3.97214 7.16791C3.97214 7.83206 4.23598 8.46901 4.7056 8.93863C5.17523 9.40826 5.81217 9.67209 6.47632 9.67209V9.67209C6.80293 9.68012 7.12793 9.62373 7.43273 9.50612C7.73754 9.38851 8.01618 9.21199 8.25275 8.98665C8.48931 8.76132 8.67915 8.49158 8.81143 8.19284C8.94371 7.89411 9.01583 7.57224 9.02368 7.24563V7.16791ZM25.0418 17.3401C25.0418 13.1866 22.3994 11.5718 19.7744 11.5718C18.9149 11.5288 18.0591 11.7118 17.2924 12.1028C16.5258 12.4937 15.875 13.0788 15.405 13.7997H15.2841V11.9172H11.2256V25.7334H15.5432V18.3849C15.4808 17.6323 15.7178 16.8855 16.2029 16.3066C16.6879 15.7278 17.3818 15.3637 18.1337 15.2935H18.2978C19.6708 15.2935 20.6897 16.157 20.6897 18.3331V25.7334H25.0072L25.0418 17.3401Z" fill="white"/>
</svg>
