<svg width="320" height="320" viewBox="0 0 320 320" fill="none" xmlns="http://www.w3.org/2000/svg">
<g clip-path="url(#clip0_9_252)">
<path d="M127.706 154.339C127.706 146.283 125.409 142.148 120.816 141.921C118.988 141.835 117.203 142.126 115.467 142.8C114.081 143.296 113.148 143.787 112.658 144.283V163.51C115.596 165.354 118.206 166.212 120.481 166.077C125.296 165.759 127.706 161.85 127.706 154.339ZM133.373 154.673C133.373 158.766 132.414 162.162 130.483 164.864C128.332 167.921 125.35 169.495 121.538 169.582C118.664 169.673 115.704 168.773 112.658 166.886V184.361L107.729 182.603V143.814C108.538 142.822 109.579 141.97 110.841 141.247C113.774 139.538 117.338 138.659 121.533 138.616L121.603 138.686C125.436 138.638 128.391 140.212 130.467 143.404C132.403 146.332 133.373 150.085 133.373 154.673Z" fill="#646464"/>
<path d="M163.492 166.142C163.492 171.631 162.942 175.432 161.842 177.545C160.737 179.659 158.634 181.347 155.529 182.603C153.011 183.595 150.288 184.134 147.365 184.226L146.551 181.12C149.522 180.716 151.614 180.312 152.827 179.907C155.216 179.098 156.855 177.858 157.755 176.198C158.478 174.844 158.834 172.261 158.834 168.439V167.155C155.464 168.687 151.932 169.447 148.239 169.447C145.812 169.447 143.672 168.687 141.828 167.155C139.757 165.489 138.722 163.376 138.722 160.814V140.304L143.65 138.616V159.262C143.65 161.467 144.362 163.165 145.785 164.357C147.209 165.549 149.053 166.12 151.312 166.077C153.571 166.028 155.992 165.155 158.564 163.446V139.36H163.492V166.142Z" fill="#646464"/>
<path d="M182.731 169.312C182.143 169.361 181.604 169.382 181.108 169.382C178.32 169.382 176.147 168.719 174.594 167.387C173.047 166.055 172.27 164.217 172.27 161.871V142.46H168.895V139.36H172.27V131.127L177.193 129.374V139.36H182.731V142.46H177.193V161.736C177.193 163.586 177.689 164.896 178.681 165.662C179.533 166.293 180.887 166.654 182.731 166.746V169.312Z" fill="#646464"/>
<path d="M212.569 168.908H207.641V149.885C207.641 147.949 207.188 146.283 206.288 144.892C205.247 143.318 203.802 142.531 201.947 142.531C199.688 142.531 196.863 143.722 193.471 146.105V168.908H188.543V123.438L193.471 121.885V142.595C196.62 140.304 200.06 139.155 203.797 139.155C206.406 139.155 208.52 140.034 210.138 141.786C211.76 143.539 212.569 145.723 212.569 148.332V168.908Z" fill="#646464"/>
<path d="M238.763 153.562C238.763 150.467 238.175 147.912 237.005 145.89C235.614 143.426 233.452 142.126 230.53 141.991C225.127 142.304 222.431 146.176 222.431 153.595C222.431 156.997 222.992 159.839 224.124 162.119C225.569 165.026 227.737 166.46 230.627 166.411C236.051 166.368 238.763 162.087 238.763 153.562ZM244.16 153.595C244.16 158 243.033 161.666 240.785 164.594C238.31 167.872 234.892 169.517 230.53 169.517C226.205 169.517 222.835 167.872 220.404 164.594C218.198 161.666 217.098 158 217.098 153.595C217.098 149.454 218.29 145.971 220.673 143.134C223.191 140.126 226.502 138.616 230.594 138.616C234.687 138.616 238.019 140.126 240.585 143.134C242.969 145.971 244.16 149.454 244.16 153.595Z" fill="#646464"/>
<path d="M272.414 168.908H267.486V148.807C267.486 146.601 266.822 144.881 265.496 143.641C264.17 142.407 262.401 141.808 260.196 141.857C257.856 141.9 255.629 142.665 253.515 144.148V168.908H248.587V143.539C251.423 141.474 254.033 140.126 256.416 139.495C258.664 138.907 260.649 138.616 262.358 138.616C263.528 138.616 264.628 138.729 265.663 138.956C267.599 139.403 269.173 140.234 270.386 141.452C271.74 142.8 272.414 144.418 272.414 146.31V168.908Z" fill="#646464"/>
<path d="M59.0551 123.62C56.5196 123.632 54.0981 123.848 51.9675 124.225C45.691 125.334 44.5515 127.655 44.5515 131.935V137.588H59.3836V139.472H44.5515H38.9851C34.6745 139.472 30.9 142.063 29.7194 146.992C28.3575 152.641 28.2971 156.167 29.7194 162.066C30.7737 166.457 33.2916 169.586 37.6022 169.586H42.7018V162.809C42.7018 157.914 46.9376 153.595 51.9675 153.595H66.7823C70.9063 153.595 74.1984 150.2 74.1984 146.058V131.935C74.1984 127.915 70.8074 124.896 66.7823 124.225C64.2344 123.801 61.5907 123.608 59.0551 123.62ZM51.034 128.166C52.5661 128.166 53.8172 129.438 53.8172 131.001C53.8172 132.559 52.5661 133.819 51.034 133.819C49.4965 133.819 48.2509 132.559 48.2509 131.001C48.2509 129.438 49.4965 128.166 51.034 128.166Z" fill="url(#paint0_linear_9_252)"/>
<path d="M76.0481 139.472V146.058C76.0481 151.165 71.719 155.462 66.7824 155.462H51.9675C47.9095 155.462 44.5515 158.935 44.5515 162.999V177.123C44.5515 181.142 48.0468 183.507 51.9675 184.66C56.6625 186.04 61.1648 186.29 66.7824 184.66C70.5164 183.579 74.1984 181.403 74.1984 177.123V171.47H59.3836V169.586H74.1984H81.6145C85.9251 169.586 87.5314 166.579 89.0305 162.066C90.579 157.42 90.5131 152.952 89.0305 146.992C87.9652 142.701 85.9306 139.472 81.6145 139.472H76.0481ZM67.7158 175.239C69.2534 175.239 70.499 176.498 70.499 178.056C70.499 179.62 69.2534 180.891 67.7158 180.891C66.1838 180.891 64.9327 179.62 64.9327 178.056C64.9327 176.498 66.1838 175.239 67.7158 175.239Z" fill="url(#paint1_linear_9_252)"/>
<path d="M282.011 134.966H282.875V129.547H284.921V128.901H279.964V129.547H282.011V134.966ZM285.688 134.966H286.426V130.017L288.028 134.966H288.85L290.519 130.034V134.966H291.325V128.901H290.259L288.435 134.097L286.879 128.901H285.688V134.966Z" fill="#646464"/>
<path opacity="0.44382" d="M79.4281 194.261C79.4281 194.767 78.914 195.268 77.9151 195.736C76.9163 196.203 75.4522 196.628 73.6065 196.986C71.7608 197.344 69.5697 197.628 67.1582 197.822C64.7467 198.015 62.1621 198.115 59.5519 198.115C56.9417 198.115 54.3571 198.015 51.9456 197.822C49.5341 197.628 47.3429 197.344 45.4972 196.986C43.6516 196.628 42.1875 196.203 41.1886 195.736C40.1897 195.268 39.6756 194.767 39.6756 194.261C39.6756 193.755 40.1897 193.253 41.1886 192.786C42.1875 192.318 43.6516 191.893 45.4972 191.535C47.3429 191.178 49.5341 190.894 51.9456 190.7C54.3571 190.506 56.9417 190.407 59.5519 190.407C62.1621 190.407 64.7467 190.506 67.1582 190.7C69.5697 190.894 71.7608 191.178 73.6065 191.535C75.4522 191.893 76.9163 192.318 77.9151 192.786C78.914 193.253 79.4281 193.755 79.4281 194.261Z" fill="url(#paint2_radial_9_252)"/>
</g>
<defs>
<linearGradient id="paint0_linear_9_252" x1="28.6752" y1="123.62" x2="62.8764" y2="152.764" gradientUnits="userSpaceOnUse">
<stop stop-color="#5A9FD4"/>
<stop offset="1" stop-color="#306998"/>
</linearGradient>
<linearGradient id="paint1_linear_9_252" x1="67.3594" y1="177.581" x2="55.0893" y2="160.387" gradientUnits="userSpaceOnUse">
<stop stop-color="#FFD43B"/>
<stop offset="1" stop-color="#FFE873"/>
</linearGradient>
<radialGradient id="paint2_radial_9_252" cx="0" cy="0" r="1" gradientUnits="userSpaceOnUse" gradientTransform="translate(59.5519 194.261) rotate(-90) scale(3.85417 16.9407)">
<stop stop-color="#B8B8B8" stop-opacity="0.498039"/>
<stop offset="1" stop-color="#7F7F7F" stop-opacity="0"/>
</radialGradient>
<clipPath id="clip0_9_252">
<rect width="320" height="320" fill="white"/>
</clipPath>
</defs>
</svg>
