<svg width="31" height="30" viewBox="0 0 31 30" fill="none" xmlns="http://www.w3.org/2000/svg">
<path d="M15.565 0C7.057 0 0.133 6.669 0.13 14.865C0.128 17.486 0.84 20.044 2.19 22.297L0 30L8.183 27.933C10.4592 29.1237 12.9902 29.7448 15.559 29.743H15.565C24.073 29.743 30.997 23.073 31 14.877C31.002 10.907 29.398 7.17 26.483 4.361C23.569 1.551 19.694 0.001 15.565 0ZM15.565 27.232H15.56C13.258 27.232 11 26.636 9.03 25.51L8.56 25.242L3.706 26.468L5.002 21.908L4.697 21.441C3.4159 19.4871 2.73393 17.2014 2.735 14.865C2.738 8.052 8.494 2.511 15.57 2.511C18.996 2.512 22.217 3.799 24.64 6.134C27.063 8.469 28.396 11.574 28.394 14.876C28.391 21.689 22.636 27.232 15.564 27.232H15.565ZM22.602 17.977C22.216 17.792 20.32 16.893 19.966 16.768C19.613 16.645 19.356 16.581 19.099 16.953C18.843 17.325 18.103 18.162 17.879 18.409C17.653 18.657 17.428 18.687 17.042 18.502C16.656 18.316 15.413 17.924 13.941 16.658C12.794 15.674 12.02 14.458 11.795 14.085C11.57 13.714 11.771 13.513 11.964 13.328C12.137 13.163 12.35 12.895 12.542 12.678C12.734 12.461 12.798 12.306 12.928 12.058C13.056 11.811 12.992 11.593 12.895 11.408C12.798 11.221 12.028 9.393 11.705 8.65C11.393 7.926 11.075 8.023 10.838 8.011C10.613 8.001 10.357 7.998 10.098 7.998C9.843 7.998 9.424 8.091 9.07 8.463C8.717 8.835 7.72 9.733 7.72 11.561C7.72 13.39 9.102 15.156 9.295 15.404C9.488 15.651 12.015 19.404 15.884 21.014C16.804 21.395 17.522 21.624 18.083 21.796C19.007 22.079 19.848 22.038 20.512 21.943C21.252 21.836 22.794 21.045 23.114 20.178C23.436 19.311 23.436 18.567 23.34 18.412C23.246 18.257 22.988 18.164 22.602 17.977V17.977Z" fill="white"/>
</svg>
